<svg width="41" height="28" viewBox="0 0 41 28" fill="none" xmlns="http://www.w3.org/2000/svg">
<path d="M32.7225 10.6716C31.5783 4.69919 26.4798 0.215546 20.355 0.215546C15.4921 0.215546 11.2686 3.05461 9.16529 7.20933C4.1005 7.7633 0.163086 12.1777 0.163086 17.5269C0.163086 23.257 4.68943 27.9137 10.259 27.9137H32.1335C36.7777 27.9137 40.5468 24.036 40.5468 19.258C40.5468 14.6878 37.0974 10.9832 32.7225 10.6716ZM32.1335 24.4514H10.259C6.54035 24.4514 3.5284 21.3527 3.5284 17.5269C3.5284 13.7011 6.54035 10.6024 10.259 10.6024H11.4537C12.5643 6.60344 16.1147 3.67782 20.355 3.67782C25.4702 3.67782 29.6096 7.93641 29.6096 13.1991V14.0646H32.1335C34.9268 14.0646 37.1815 16.3843 37.1815 19.258C37.1815 22.1317 34.9268 24.4514 32.1335 24.4514Z" fill="url(#paint0_linear)"/>
<defs>
<linearGradient id="paint0_linear" x1="20.355" y1="0.215546" x2="20.355" y2="27.9137" gradientUnits="userSpaceOnUse">
<stop stop-color="#29ABE2"/>
<stop offset="1" stop-color="#00EAA6"/>
</linearGradient>
</defs>
</svg>
