<svg width="39" height="38" viewBox="0 0 39 38" fill="none" xmlns="http://www.w3.org/2000/svg">
<path d="M12.1875 23.1111C12.1875 22.0065 13.0829 21.1111 14.1875 21.1111H24.8125C25.9171 21.1111 26.8125 22.0065 26.8125 23.1111V31.7778C26.8125 32.8823 27.7079 33.7778 28.8125 33.7778H32.125C33.2296 33.7778 34.125 32.8824 34.125 31.7778V15.8635C34.125 15.1864 33.7823 14.5552 33.2145 14.1863L20.5895 5.98547C19.9269 5.55509 19.0731 5.55509 18.4105 5.98547L5.78553 14.1863C5.21765 14.5552 4.875 15.1864 4.875 15.8635V31.7778C4.875 32.8823 5.77043 33.7778 6.875 33.7778H10.1875C11.2921 33.7778 12.1875 32.8824 12.1875 31.7778V23.1111ZM2 38C0.89543 38 0 37.1046 0 36V13.7524C0 13.0753 0.342652 12.4441 0.910527 12.0752L18.4105 0.707693C19.0731 0.277312 19.9269 0.277311 20.5895 0.707692L38.0895 12.0752C38.6573 12.4441 39 13.0753 39 13.7524V36C39 37.1046 38.1046 38 37 38H2Z" fill="url(#paint0_linear)"/>
<defs>
<linearGradient id="paint0_linear" x1="19.5" y1="0" x2="19.5" y2="38" gradientUnits="userSpaceOnUse">
<stop stop-color="#29ABE2"/>
<stop offset="1" stop-color="#00EAA6"/>
</linearGradient>
</defs>
</svg>
