<svg width="126" height="150" viewBox="0 0 126 150" fill="none" xmlns="http://www.w3.org/2000/svg">
<path d="M54.5761 25.8639L62.8816 7.58079L71.1981 25.875C71.4545 26.438 77.1847 39.2362 77.9428 60.245C85.518 52.9931 91.1813 49.8883 92.0175 49.4535L108.411 40.8192L105.267 59.08C105.033 60.4457 102.909 71.488 93.4389 86.867C97.6863 86.9562 100.267 87.4746 100.78 87.5805L118.89 91.5269L104.726 103.478C104.119 103.991 99.4812 107.787 90.5849 111.393L99.7264 123.578L81.2037 123.366C80.7522 123.361 75.1557 123.361 73.3553 122.084C69.0855 118.651 68.0042 114.52 68.0042 114.52C75.6909 117.915 81.0197 118.015 81.265 118.015L88.9238 118.099L84.3252 111.978C84.1579 111.75 83.2382 110.568 81.4099 108.929C94.4478 105.055 100.981 99.6317 101.265 99.392L107.123 94.4478L99.6317 92.8146C99.3474 92.7533 96.722 92.207 92.1791 92.207C89.1747 92.207 86.0755 92.4411 82.8926 92.8982C83.3497 92.2739 83.8235 91.6217 84.2973 90.9472C97.3853 72.5694 99.8825 58.7511 99.9773 58.1714L101.282 50.6185L94.4979 54.1915C94.0297 54.4424 83.9796 59.8325 72.4913 74.1301C72.6084 71.2204 72.6641 68.1212 72.6641 64.8325C72.6641 42.3131 66.5772 28.6565 66.3208 28.0824L62.8816 20.5239L59.4423 28.0824C59.1859 28.6565 53.099 42.3131 53.099 64.8325C53.099 68.1212 53.1603 71.2204 53.2718 74.1301C41.7836 59.8325 31.739 54.4424 31.2652 54.1915L24.4871 50.6185L25.7859 58.1714C25.8862 58.7511 28.3834 72.5694 41.4658 90.9472C41.9508 91.6217 42.419 92.2739 42.8705 92.8982C39.6932 92.4411 36.5885 92.207 33.5896 92.207C29.0467 92.207 26.4213 92.7533 26.137 92.8146L18.6454 94.4478L24.5038 99.392C24.7937 99.6373 31.3209 105.061 44.3588 108.929C42.5305 110.574 41.6107 111.755 41.4435 111.978L36.8449 118.099L44.5037 118.015C44.749 118.015 50.0723 117.915 57.7645 114.52V122.229V129.704C61.2929 130.802 63.8737 134.052 63.8737 137.937C63.8737 142.72 59.9997 146.599 55.2116 146.599C50.429 146.599 46.555 142.72 46.555 137.937C46.555 134.135 49.0132 130.947 52.4189 129.777V122.079C47.9541 123.277 45.0277 123.355 44.5706 123.361L26.0534 123.567L35.2005 111.382C26.3377 107.787 21.6721 103.996 21.059 103.472L6.89517 91.5214L24.9943 87.5749C25.5071 87.4634 28.088 86.945 32.341 86.8558C22.8706 71.4769 20.7468 60.4345 20.5183 59.0689L17.3689 40.8025L33.7624 49.4424C34.5818 49.8716 40.2395 52.9596 47.8315 60.2283C48.5895 39.2306 54.3197 26.438 54.5761 25.8639ZM60.0276 6.2876L51.7222 24.5707C51.4936 25.0668 46.672 35.836 45.1001 53.5951C39.7991 49.1748 36.0701 47.118 35.2117 46.6776L18.8238 38.0433L13.1883 35.0779L14.2753 41.3543L17.4191 59.6151C17.748 61.5048 19.6376 70.8191 27.0623 84.0855C25.6409 84.2527 24.7156 84.4422 24.331 84.5203L6.22069 88.4667L0 89.8213L4.86061 93.9294L19.03 105.88C19.7937 106.521 23.5005 109.492 30.3009 112.681L23.5339 121.688L19.7156 126.778L26.0813 126.705L44.5985 126.504C45.0221 126.499 46.6943 126.454 49.2751 125.997V127.787C45.6966 129.866 43.4112 133.712 43.4112 137.943C43.4112 144.448 48.701 149.743 55.206 149.743C61.7166 149.743 67.0008 144.448 67.0008 137.943C67.0008 133.578 64.6263 129.682 60.8972 127.642V122.229V114.52V109.71L56.4936 111.649C49.4201 114.771 44.5149 114.877 44.4647 114.877L43.1715 114.888L43.9519 113.851C44.0299 113.734 44.8103 112.731 46.4491 111.254L50.6241 107.502L45.2451 105.908C32.8204 102.218 26.5829 97.0342 26.5161 96.984L25.5238 96.1479L26.7948 95.8692C26.8951 95.8469 29.2864 95.3396 33.5784 95.3396C36.4157 95.3396 39.3922 95.5626 42.4134 96.0029L49.7824 97.062L45.3956 91.0476C44.9496 90.4288 44.487 89.7878 44.0132 89.1189C31.3321 71.3152 28.9631 58.1882 28.8683 57.6363L28.6509 56.3543L29.7992 56.9619C30.2006 57.1681 39.7155 62.274 50.8248 76.0922L56.7835 83.5002L56.4044 74.0019C56.293 71.148 56.2317 68.0543 56.2317 64.8269C56.2317 42.9708 62.051 29.9218 62.2963 29.3811L62.876 28.0991L63.4613 29.3811C63.7065 29.9218 69.5259 42.9764 69.5259 64.8269C69.5259 68.0543 69.4646 71.1424 69.3531 74.0019L68.9796 83.5002L74.9328 76.0922C86.042 62.2684 95.557 57.1681 95.9583 56.9674L97.1066 56.3599L96.8892 57.6419C96.7945 58.1937 94.4254 71.3152 81.7443 89.1245C81.2705 89.7878 80.8135 90.4288 80.362 91.0476L75.9696 97.0676L83.3441 96.0029C86.3653 95.5626 89.3363 95.3396 92.1791 95.3396C96.4712 95.3396 98.868 95.8524 98.9628 95.8692L100.228 96.1479L99.2415 96.984C99.1746 97.0342 92.9428 102.224 80.5125 105.908L75.139 107.502L79.3085 111.254C80.9528 112.731 81.7276 113.74 81.8113 113.851L82.5916 114.888L81.2928 114.877C81.2427 114.871 76.3375 114.771 69.2639 111.649L63.3108 109.024L64.9663 115.312C65.1001 115.836 66.449 120.557 71.3821 124.52L71.4546 124.581L71.5326 124.637C72.1625 125.083 74.0744 126.438 81.1033 126.499L99.6763 126.7L106.042 126.772L102.224 121.683L95.4623 112.675C102.302 109.476 105.992 106.505 106.739 105.864L120.897 93.9182L125.769 89.8157L119.542 88.4612L101.432 84.5147C101.047 84.4311 100.122 84.2471 98.7008 84.0799C106.131 70.8135 108.015 61.4992 108.344 59.6151L111.488 41.3488L112.564 35.0723L106.934 38.0377L90.5459 46.6721C89.6875 47.1236 85.9473 49.1916 80.663 53.5895C79.1524 36.2763 74.6095 25.8249 74.0409 24.5707L65.7411 6.2876L62.8816 0L60.0276 6.2876Z" fill="white"/>
</svg>
