<svg width="14" height="33" viewBox="0 0 14 33" fill="none" xmlns="http://www.w3.org/2000/svg">
<path d="M4.52329 0.922119C3.85389 0.922119 3.2119 1.1957 2.73856 1.68268C2.26523 2.16965 1.99931 2.83013 1.99931 3.51882V24.2924C0.939234 25.1061 0.31665 26.3871 0.31665 27.7547C0.31665 28.9025 0.759849 30.0033 1.54875 30.815C2.33765 31.6266 3.40762 32.0826 4.52329 32.0826C5.63896 32.0826 6.70894 31.6266 7.49783 30.815C8.28673 30.0033 8.72993 28.9025 8.72993 27.7547C8.72993 26.3871 8.10735 25.158 7.04728 24.2924V21.6957H13.7779V18.2335H7.04728V14.7712H13.7779V11.3089H7.04728V7.84666H13.7779V4.38439H7.04728V3.51882C7.04728 2.83013 6.78136 2.16965 6.30802 1.68268C5.83468 1.1957 5.19269 0.922119 4.52329 0.922119Z" fill="url(#paint0_linear)"/>
<defs>
<linearGradient id="paint0_linear" x1="7.04728" y1="0.922119" x2="7.04728" y2="32.0826" gradientUnits="userSpaceOnUse">
<stop stop-color="#29ABE2"/>
<stop offset="1" stop-color="#00EAA6"/>
</linearGradient>
</defs>
</svg>
